# Blender 5.1.2
# www.blender.org
mtllib Key Knife1.mtl
o Cube.002
v -0.659257 -0.582786 -0.130543
v -0.577131 -0.706023 -0.130543
v -0.659257 -0.838375 -0.130543
v -0.577131 -0.871572 -0.130543
v -0.577131 -0.706023 -0.007509
v -0.186429 -0.863954 -0.130543
v -0.052263 -0.947100 -0.130543
v -0.186429 -0.863954 -0.007509
v -0.577131 -1.008967 -0.130543
v -0.659257 -1.093964 -0.130543
v -0.577131 -1.008967 -0.007509
v -0.186429 -1.029503 -0.130543
v -0.073912 -0.999363 -0.130543
v -0.052263 -1.051627 -0.130543
v -0.020446 -1.064806 -0.130543
v -0.035327 -1.090582 -0.130543
v -0.069107 -1.149089 -0.130543
v -0.186429 -1.166898 -0.130543
v -0.186429 -1.166898 -0.007509
v -0.659257 -0.582786 0.000000
v -0.659257 -0.582786 0.130543
v -0.577131 -0.706023 0.130543
v -0.659257 -0.838375 0.130543
v -0.577131 -0.871572 0.130543
v -0.186429 -0.863954 0.130543
v -0.052263 -0.947100 0.130543
v -0.659257 -1.093964 0.000000
v -0.577131 -1.008967 0.130543
v -0.659257 -1.093964 0.130543
v -0.186429 -1.029503 0.130543
v -0.073912 -0.999363 0.130543
v -0.052263 -1.051627 0.130543
v -0.020446 -1.064806 0.130543
v -0.035328 -1.090582 0.130543
v -0.069107 -1.149089 0.130543
v -0.186429 -1.166898 0.130543
v 0.000000 -0.849273 -0.130543
v 0.000000 -0.925452 -0.130543
v 0.052263 -0.947100 -0.130543
v 0.176897 -0.863954 -0.130543
v 0.176897 -0.863954 -0.007509
v 0.659257 -0.582786 -0.130543
v 0.567600 -0.706023 -0.130543
v 0.659257 -0.838375 -0.130543
v 0.567600 -0.875425 -0.130543
v 0.567600 -0.706023 -0.007509
v 0.073912 -0.999363 -0.130543
v 0.020446 -1.064806 -0.130543
v 0.052263 -1.051627 -0.130543
v 0.035327 -1.090582 -0.130543
v 0.000000 -1.149089 -0.130543
v 0.069107 -1.149089 -0.130543
v 0.176897 -1.033356 -0.130543
v 0.000000 -1.360451 -0.130543
v 0.176897 -1.166898 -0.130543
v 0.176897 -1.166898 -0.007509
v 0.567600 -1.008967 -0.130543
v 0.659257 -1.093964 -0.130543
v 0.567600 -1.008967 -0.007509
v 0.000000 -0.849273 0.000000
v 0.000000 -0.849273 0.130543
v 0.000000 -0.925452 0.130543
v 0.052263 -0.947100 0.130543
v 0.176897 -0.863954 0.130543
v 0.659257 -0.582786 0.000000
v 0.659257 -0.582786 0.130543
v 0.567600 -0.706023 0.130543
v 0.659257 -0.838375 0.130543
v 0.567600 -0.875425 0.130543
v 0.000000 -1.360451 -0.000000
v 0.073912 -0.999363 0.130543
v 0.020446 -1.064806 0.130543
v 0.052263 -1.051627 0.130543
v 0.035328 -1.090582 0.130543
v 0.000000 -1.149089 0.130543
v 0.069107 -1.149089 0.130543
v 0.176897 -1.033356 0.130543
v 0.000000 -1.360451 0.130543
v 0.176897 -1.166898 0.130543
v 0.659257 -1.093964 0.000000
v 0.567600 -1.008967 0.130543
v 0.659257 -1.093964 0.130543
v -0.504485 -2.398568 0.099896
v -0.438065 -2.269674 0.099896
v -0.504485 -2.202983 0.099896
v -0.438065 -2.176135 0.099896
v -0.438065 -2.063668 0.099896
v -0.504485 -2.007399 0.099896
v -0.504485 -2.398568 -0.000000
v -0.438065 -2.269674 -0.000000
v -0.504485 -2.398568 -0.099896
v -0.438065 -2.269674 -0.099896
v -0.504485 -2.202983 -0.099896
v -0.438065 -2.176135 -0.099896
v -0.438065 -2.063668 -0.000000
v -0.504485 -2.007399 -0.000000
v -0.438065 -2.063668 -0.099896
v -0.504485 -2.007399 -0.099896
v 0.000000 -2.194643 0.099896
v 0.000000 -2.102062 0.099896
v 0.504485 -2.398568 0.099896
v 0.438065 -2.269674 0.099896
v 0.438065 -2.176135 0.099896
v 0.504485 -2.202983 0.099896
v 0.000000 -1.896055 0.099896
v 0.000000 -1.803474 0.099896
v 0.438065 -2.063668 0.099896
v 0.504485 -2.007399 0.099896
v 0.000000 -2.194643 -0.000000
v 0.000000 -2.102062 -0.000000
v 0.000000 -2.194643 -0.099896
v 0.000000 -2.102062 -0.099896
v 0.504485 -2.398568 -0.000000
v 0.438065 -2.269674 -0.000000
v 0.504485 -2.398568 -0.099896
v 0.438065 -2.269674 -0.099896
v 0.438065 -2.176135 -0.099896
v 0.504485 -2.202983 -0.099896
v 0.000000 -1.896055 -0.000000
v 0.000000 -1.803474 -0.000000
v 0.000000 -1.896055 -0.099896
v 0.000000 -1.803474 -0.099896
v 0.438065 -2.063668 -0.000000
v 0.504485 -2.007399 -0.000000
v 0.438065 -2.063668 -0.099896
v 0.504485 -2.007399 -0.099896
v -0.309403 -1.933286 0.114225
v -0.210072 -1.893134 0.114225
v -0.309403 -1.235383 0.114225
v -0.210072 -1.275535 0.114225
v -0.309403 -1.933286 -0.000000
v -0.210072 -1.893134 -0.000000
v -0.309403 -1.933286 -0.114225
v -0.210072 -1.893134 -0.114225
v -0.309403 -1.235383 -0.000000
v -0.210072 -1.275535 -0.000000
v -0.309403 -1.235383 -0.114225
v -0.210072 -1.275535 -0.114225
v 0.210072 -1.893134 0.114225
v 0.309403 -1.933286 0.114225
v 0.210072 -1.275535 0.114225
v 0.309403 -1.235383 0.114225
v 0.210072 -1.893134 -0.000000
v 0.309403 -1.933286 -0.000000
v 0.210072 -1.893134 -0.114225
v 0.309403 -1.933286 -0.114225
v 0.210072 -1.275535 -0.000000
v 0.309403 -1.235383 -0.000000
v 0.210072 -1.275535 -0.114225
v 0.309403 -1.235383 -0.114225
v -0.253565 -0.849697 0.081589
v -0.163761 -0.844082 0.081589
v -0.253565 0.802178 0.081589
v -0.163761 0.759090 0.081589
v -0.253565 -0.849697 -0.081589
v -0.163761 -0.844082 -0.081589
v -0.253565 0.802178 0.000000
v -0.163761 0.759090 0.000000
v -0.253565 0.802178 -0.081589
v -0.163761 0.759090 -0.081589
v 0.163761 -0.844082 0.081589
v 0.253565 -0.849697 0.081589
v 0.000000 0.994239 0.081589
v 0.000000 1.166278 0.081589
v 0.163761 0.759090 0.081589
v 0.253565 0.802178 0.081589
v 0.163761 -0.844082 -0.081589
v 0.253565 -0.849697 -0.081589
v 0.000000 0.994239 0.000000
v 0.000000 1.166278 0.000000
v 0.000000 0.994239 -0.081589
v 0.000000 1.166278 -0.081589
v 0.163761 0.759090 0.000000
v 0.253565 0.802178 0.000000
v 0.163761 0.759090 -0.081589
v 0.253565 0.802178 -0.081589
vn -0.3748 -0.9271 -0.0000
vn -0.0000 -0.0000 -1.0000
vn -0.3748 0.9271 -0.0000
vn -0.0000 -0.0000 1.0000
vn 0.3748 0.9271 -0.0000
vn 1.0000 -0.0000 -0.0000
vn 0.3748 -0.9271 -0.0000
vn -1.0000 -0.0000 -0.0000
vn -0.8660 -0.5000 -0.0000
vn -0.0000 1.0000 -0.0000
vn 0.8660 -0.5000 -0.0000
vn -0.3827 -0.9239 -0.0000
vn -0.9239 -0.3827 -0.0000
vn -0.9239 0.3827 -0.0000
vn -0.3827 0.9239 -0.0000
vn 0.3827 0.9239 -0.0000
vn 0.9239 0.3827 -0.0000
vn 0.9239 -0.3827 -0.0000
vn 0.3827 -0.9239 -0.0000
vn 0.3574 -0.9340 -0.0000
vn 0.3574 0.9340 -0.0000
vn -0.3574 0.9340 -0.0000
vn -0.3574 -0.9340 -0.0000
vn -0.0000 -1.0000 -0.0000
vn -0.8206 0.5715 -0.0000
vn 0.8206 0.5715 -0.0000
vn 0.8206 -0.5715 -0.0000
vn -0.8206 -0.5715 -0.0000
vt 0.875000 0.625000
vt 0.750000 0.750000
vt 0.750000 0.625000
vt 0.567195 0.910348
vt 0.625000 0.875000
vt 0.625000 1.000000
vt 0.250000 0.750000
vt 0.375000 0.625000
vt 0.375000 0.750000
vt 0.625000 0.375000
vt 0.625000 0.500000
vt 0.565311 0.408541
vt 0.417151 0.408541
vt 0.412256 0.375000
vt 0.433176 0.384910
vt 0.500000 0.339652
vt 0.463016 0.360986
vt 0.433176 0.365090
vt 0.567195 0.339652
vt 0.625000 0.250000
vt 0.125000 0.750000
vt 0.250000 0.625000
vt 0.125000 0.625000
vt 0.250000 0.500000
vt 0.375000 0.500000
vt 0.500000 0.750000
vt 0.500000 0.500000
vt 0.625000 0.625000
vt 0.419035 0.910348
vt 0.412256 0.875000
vt 0.433176 0.884910
vt 0.500000 0.841459
vt 0.463016 0.860986
vt 0.433176 0.865090
vt 0.565311 0.841459
vt 0.625000 0.750000
vt 0.750000 0.500000
vt 0.875000 0.500000
vt 0.500000 0.250000
vt 0.500000 0.000000
vt 0.625000 0.125000
vt 0.875000 0.671690
vt 0.750000 0.671690
vt 0.250000 0.671690
vt 0.125000 0.572611
vt 0.250000 0.572611
vt 0.522049 0.569950
vt 0.750000 0.572611
vt 0.375000 0.125000
vt 0.511617 0.177389
vt 0.875000 0.677389
vt 0.125000 0.677389
vt 0.250000 0.677389
vt 0.250000 0.578310
vt 0.500874 0.709930
vt 0.750000 0.578310
vt 0.875000 0.578310
vt 0.625000 0.072611
vt 0.514797 0.072611
vt 0.829600 0.626159
vt 0.666667 0.873841
vt 0.829600 0.873840
vt 0.500000 0.626159
vt 0.333333 0.873841
vt 0.500000 0.873841
vt 0.170400 0.626159
vt 0.098619 0.873841
vt 0.170400 0.873841
vt 0.875000 0.626339
vt 1.000000 0.873661
vt 1.000000 0.626339
vt 0.750000 0.626339
vt 0.875000 0.873661
vt 0.625000 0.873661
vt 0.750000 0.873661
vt 0.548901 0.873661
vt 0.625000 0.626339
vt 0.548901 0.626339
vt 0.375000 0.626339
vt 0.451099 0.873661
vt 0.451099 0.626339
vt 0.250000 0.873661
vt 0.375000 0.873661
vt 0.125000 0.626339
vt 0.250000 0.626339
vt 0.000000 0.626339
vt 0.125000 0.873661
vt 0.565830 0.875000
vt 0.565830 0.375000
vt 0.440218 0.483543
vt 0.375000 0.250000
vt 0.440218 0.266457
vt 0.375000 0.375000
vt 0.571879 0.266457
vt 0.125000 0.500000
vt 0.440218 0.983543
vt 0.500000 1.000000
vt 0.375000 1.000000
vt 0.440218 0.766457
vt 0.375000 0.875000
vt 0.571879 0.766457
vt 0.750000 0.704390
vt 0.250000 0.704390
vt 0.375000 0.704390
vt 0.125000 0.545610
vt 0.250000 0.545610
vt 0.375000 0.545610
vt 0.488516 0.704390
vt 0.625000 0.704390
vt 0.625000 0.545610
vt 0.875000 0.545610
vt 0.750000 0.545610
vt 0.488516 0.204390
vt 0.569538 0.250000
vt 0.427348 0.250000
vt 0.427348 0.125000
vt 0.435529 0.290130
vt 0.561357 0.290130
vt 0.427348 0.500000
vt 0.561357 0.459870
vt 0.569538 0.500000
vt 0.427348 0.625000
vt 0.569538 0.625000
vt 0.569538 1.000000
vt 0.435529 0.959870
vt 0.561357 0.959870
vt 0.435529 0.790130
vt 0.569538 0.750000
vt 0.561357 0.790130
vt 0.441543 0.204511
vt 0.555634 0.204511
vt 0.555634 0.125000
vt 0.555634 0.625000
vt 0.441543 0.545489
vt 0.441543 0.625000
vt 0.808665 0.625000
vt 0.789831 0.734375
vt 0.808665 0.734375
vt 0.691335 0.625000
vt 0.710169 0.734375
vt 0.710169 0.625000
vt 0.691335 0.515625
vt 0.710169 0.515625
vt 0.808665 0.515625
vt 0.789831 0.625000
vt 0.789831 0.734375
vt 0.691335 0.734375
vt 0.710169 0.515625
vt 0.691335 0.515625
vt 0.808665 0.515625
vt 0.789831 0.515625
vt 0.375000 0.000000
vt 0.625000 0.000000
vt 0.604700 0.294271
vt 0.604700 0.455729
vt 0.604700 0.955729
vt 0.604700 0.794271
vt 0.375000 0.078546
vt 0.375000 0.171454
vt 0.375000 0.578546
vt 0.375000 0.671454
vt 0.125000 0.578546
vt 0.750000 0.671454
vt 0.625000 0.671454
vt 0.625000 0.578546
vt 0.875000 0.578546
vt 0.750000 0.578546
vt 0.875000 0.750000
vt 0.500000 0.910348
vt 0.500000 0.881698
vt 0.535292 0.888103
vt 0.521630 0.875000
vt 0.500000 0.984428
vt 0.567195 0.984428
vt 0.565311 0.482621
vt 0.500000 0.482621
vt 0.535292 0.388103
vt 0.521630 0.375000
vt 0.500000 0.408541
vt 0.500000 0.381698
vt 0.417151 0.482621
vt 0.484296 0.384910
vt 0.463016 0.389014
vt 0.484452 0.378877
vt 0.419035 0.339652
vt 0.419035 0.265572
vt 0.500000 0.265572
vt 0.500000 0.368302
vt 0.484452 0.371123
vt 0.484296 0.365090
vt 0.535292 0.361897
vt 0.567195 0.265572
vt 0.419035 0.984428
vt 0.484296 0.884909
vt 0.463016 0.889014
vt 0.484452 0.878877
vt 0.417151 0.841459
vt 0.417151 0.767379
vt 0.500000 0.767379
vt 0.500000 0.868302
vt 0.484452 0.871123
vt 0.484296 0.865090
vt 0.535292 0.861897
vt 0.565311 0.767379
vt 0.125000 0.671690
vt 0.497834 0.700267
vt 0.703310 0.718381
vt 0.875000 0.572611
vt 0.625000 0.078310
vt 0.511617 0.078310
vt 0.375000 0.078310
vt 0.375000 0.177389
vt 0.625000 0.177389
vt 0.750000 0.677389
vt 0.125000 0.578310
vt 0.697611 0.729779
vt 0.528265 0.576482
vt 0.375000 0.072611
vt 0.375000 0.171690
vt 0.514797 0.171690
vt 0.625000 0.171690
vt 0.901381 0.873840
vt 0.901381 0.626159
vt 0.666667 0.626159
vt 0.333333 0.626159
vt 0.098619 0.626159
vt 0.000000 0.873661
vt 0.571879 0.983543
vt 0.500000 0.983543
vt 0.571879 0.483543
vt 0.500000 0.483543
vt 0.434170 0.375000
vt 0.500000 0.266457
vt 0.434170 0.875000
vt 0.500000 0.766457
vt 0.875000 0.704390
vt 0.125000 0.704390
vt 0.488516 0.545610
vt 0.488516 0.045610
vt 0.375000 0.045610
vt 0.375000 0.204390
vt 0.625000 0.204390
vt 0.625000 0.045610
vt 0.427348 0.000000
vt 0.569538 0.000000
vt 0.569538 0.125000
vt 0.435529 0.459870
vt 0.427348 0.750000
vt 0.427348 1.000000
vt 0.555634 0.045489
vt 0.441543 0.125000
vt 0.441543 0.045489
vt 0.441543 0.704511
vt 0.555634 0.704511
vt 0.555634 0.545489
vt 0.691335 0.734375
vt 0.789831 0.515625
vt 0.808665 0.734375
vt 0.710169 0.734375
vt 0.375813 0.455729
vt 0.611750 0.375000
vt 0.375813 0.294271
vt 0.611750 0.875000
vt 0.375813 0.794271
vt 0.375813 0.955729
vt 0.625000 0.171454
vt 0.625000 0.078546
vt 0.125000 0.671454
vt 0.875000 0.671454
s 0
usemtl Material.001
f 27/1/1 54/2/1 70/3/1
f 18/4/2 54/5/2 10/6/2
f 37/7/3 65/8/3 42/9/3
f 78/10/4 82/11/4 79/12/4
f 64/13/4 62/14/4 63/15/4
f 30/16/4 31/17/4 26/18/4
f 36/19/4 29/20/4 78/10/4
f 1/21/5 60/22/5 37/7/5
f 20/23/5 61/24/5 60/22/5
f 60/22/3 66/25/3 65/8/3
f 44/26/6 68/27/6 80/28/6
f 6/29/2 38/30/2 7/31/2
f 53/32/2 47/33/2 39/34/2
f 54/5/2 55/35/2 58/36/2
f 70/3/7 58/36/7 80/28/7
f 78/37/7 80/28/7 82/11/7
f 29/38/1 70/3/1 78/37/1
f 23/39/8 3/40/8 27/41/8
f 9/42/5 19/3/5 18/43/5
f 5/23/1 6/44/1 8/22/1
f 22/45/1 8/22/1 25/46/1
f 8/22/8 19/3/8 30/47/8
f 11/1/5 36/48/5 19/3/5
f 11/41/6 5/49/6 24/50/6
f 56/3/3 81/51/3 59/1/3
f 41/22/7 67/52/7 64/53/7
f 40/54/7 46/23/7 41/22/7
f 41/22/6 64/53/6 77/55/6
f 55/56/3 59/1/3 57/57/3
f 59/41/8 81/58/8 69/59/8
f 50/60/9 76/61/9 74/62/9
f 51/63/10 35/64/10 75/65/10
f 16/66/11 33/67/11 34/68/11
f 39/69/12 62/70/12 38/71/12
f 47/72/13 63/73/13 39/69/13
f 47/72/14 73/74/14 71/75/14
f 72/76/15 49/77/15 48/78/15
f 14/79/16 33/80/16 15/81/16
f 14/79/17 31/82/17 32/83/17
f 7/84/18 31/82/18 13/85/18
f 38/86/19 26/87/19 7/84/19
f 27/1/1 10/168/1 54/2/1
f 18/4/2 12/169/2 16/170/2
f 17/171/2 51/172/2 18/4/2
f 51/172/2 54/5/2 18/4/2
f 18/4/2 16/170/2 17/171/2
f 3/97/2 4/173/2 9/174/2
f 10/6/2 3/97/2 9/174/2
f 9/174/2 18/4/2 10/6/2
f 37/7/3 60/22/3 65/8/3
f 82/11/4 68/27/4 81/175/4
f 68/27/4 69/176/4 81/175/4
f 76/177/4 75/178/4 79/12/4
f 75/178/4 78/10/4 79/12/4
f 77/179/4 74/180/4 79/12/4
f 74/180/4 76/177/4 79/12/4
f 82/11/4 81/175/4 79/12/4
f 67/181/4 69/176/4 68/27/4
f 66/25/4 61/93/4 67/181/4
f 61/93/4 62/14/4 64/13/4
f 67/181/4 68/27/4 66/25/4
f 74/180/4 77/179/4 73/182/4
f 77/179/4 64/13/4 63/15/4
f 73/182/4 77/179/4 71/183/4
f 64/13/4 67/181/4 61/93/4
f 73/182/4 72/184/4 74/180/4
f 71/183/4 77/179/4 63/15/4
f 26/18/4 62/14/4 25/185/4
f 62/14/4 61/93/4 25/185/4
f 21/91/4 23/39/4 22/186/4
f 23/39/4 24/187/4 22/186/4
f 34/188/4 33/189/4 32/190/4
f 25/185/4 30/16/4 26/18/4
f 30/16/4 34/188/4 32/190/4
f 21/91/4 22/186/4 61/93/4
f 22/186/4 25/185/4 61/93/4
f 30/16/4 32/190/4 31/17/4
f 35/191/4 34/188/4 36/19/4
f 34/188/4 30/16/4 36/19/4
f 78/10/4 75/178/4 36/19/4
f 75/178/4 35/191/4 36/19/4
f 24/187/4 23/39/4 28/192/4
f 23/39/4 29/20/4 28/192/4
f 36/19/4 28/192/4 29/20/4
f 1/21/5 20/23/5 60/22/5
f 20/23/5 21/95/5 61/24/5
f 60/22/3 61/24/3 66/25/3
f 44/26/6 42/9/6 65/8/6
f 65/8/6 66/25/6 68/27/6
f 68/27/6 82/11/6 80/28/6
f 80/28/6 58/36/6 44/26/6
f 44/26/6 65/8/6 68/27/6
f 2/193/2 4/173/2 3/97/2
f 1/98/2 37/100/2 2/193/2
f 37/100/2 38/30/2 6/29/2
f 2/193/2 3/97/2 1/98/2
f 16/170/2 12/169/2 14/194/2
f 12/169/2 6/29/2 7/31/2
f 14/194/2 12/169/2 13/195/2
f 6/29/2 2/193/2 37/100/2
f 14/194/2 15/196/2 16/170/2
f 13/195/2 12/169/2 7/31/2
f 39/34/2 38/30/2 40/197/2
f 38/30/2 37/100/2 40/197/2
f 42/9/2 44/26/2 43/198/2
f 44/26/2 45/199/2 43/198/2
f 50/200/2 48/201/2 49/202/2
f 40/197/2 53/32/2 39/34/2
f 53/32/2 50/200/2 49/202/2
f 42/9/2 43/198/2 37/100/2
f 43/198/2 40/197/2 37/100/2
f 53/32/2 49/202/2 47/33/2
f 54/5/2 51/172/2 55/35/2
f 51/172/2 52/203/2 55/35/2
f 52/203/2 50/200/2 55/35/2
f 50/200/2 53/32/2 55/35/2
f 45/199/2 44/26/2 57/204/2
f 44/26/2 58/36/2 57/204/2
f 55/35/2 57/204/2 58/36/2
f 70/3/7 54/2/7 58/36/7
f 78/37/7 70/3/7 80/28/7
f 29/38/1 27/1/1 70/3/1
f 23/39/8 21/91/8 20/49/8
f 20/49/8 1/152/8 3/40/8
f 3/40/8 10/153/8 27/41/8
f 27/41/8 29/20/8 23/39/8
f 23/39/8 20/49/8 3/40/8
f 9/42/5 11/1/5 19/3/5
f 5/23/1 2/205/1 6/44/1
f 22/45/1 5/23/1 8/22/1
f 8/22/8 6/44/8 12/206/8
f 12/206/8 18/207/8 19/3/8
f 19/3/8 36/48/8 30/47/8
f 30/47/8 25/46/8 8/22/8
f 8/22/8 12/206/8 19/3/8
f 11/1/5 28/208/5 36/48/5
f 11/41/6 9/209/6 4/210/6
f 4/210/6 2/211/6 5/49/6
f 5/49/6 22/212/6 24/50/6
f 24/50/6 28/213/6 11/41/6
f 11/41/6 4/210/6 5/49/6
f 56/3/3 79/214/3 81/51/3
f 41/22/7 46/23/7 67/52/7
f 40/54/7 43/215/7 46/23/7
f 79/216/6 56/3/6 77/55/6
f 56/3/6 55/56/6 53/217/6
f 53/217/6 40/54/6 41/22/6
f 56/3/6 53/217/6 41/22/6
f 77/55/6 56/3/6 41/22/6
f 55/56/3 56/3/3 59/1/3
f 67/218/8 46/49/8 69/59/8
f 46/49/8 43/219/8 45/220/8
f 45/220/8 57/221/8 59/41/8
f 46/49/8 45/220/8 59/41/8
f 69/59/8 46/49/8 59/41/8
f 72/222/9 48/223/9 50/60/9
f 50/60/9 52/224/9 76/61/9
f 74/62/9 72/222/9 50/60/9
f 76/61/10 52/224/10 51/63/10
f 51/63/10 17/225/10 35/64/10
f 75/65/10 76/61/10 51/63/10
f 35/64/11 17/225/11 34/68/11
f 17/225/11 16/66/11 34/68/11
f 16/66/11 15/226/11 33/67/11
f 39/69/12 63/73/12 62/70/12
f 47/72/13 71/75/13 63/73/13
f 47/72/14 49/77/14 73/74/14
f 72/76/15 73/74/15 49/77/15
f 14/79/16 32/83/16 33/80/16
f 14/79/17 13/85/17 31/82/17
f 7/84/18 26/87/18 31/82/18
f 38/86/19 62/227/19 26/87/19
usemtl 
f 137/114/8 133/115/8 131/116/8
f 134/117/2 137/114/2 138/118/2
f 146/119/2 149/120/2 150/121/2
f 144/122/6 150/121/6 148/123/6
f 129/124/4 128/125/4 130/126/4
f 139/127/4 142/128/4 141/129/4
f 134/130/6 138/131/6 136/132/6
f 147/133/8 145/134/8 143/135/8
f 135/136/5 138/137/5 137/138/5
f 148/139/3 149/140/3 147/141/3
f 142/142/3 147/141/3 141/143/3
f 129/144/5 136/145/5 135/136/5
f 128/146/7 131/136/7 132/145/7
f 140/147/1 143/141/1 144/139/1
f 144/139/1 145/148/1 146/149/1
f 132/145/7 133/150/7 134/151/7
f 151/152/8 153/153/8 157/41/8
f 160/154/2 155/91/2 159/20/2
f 175/155/2 176/11/2 168/25/2
f 168/25/6 176/11/6 174/28/6
f 154/156/4 153/6/4 151/98/4
f 165/157/4 166/36/4 164/5/4
f 151/21/24 168/25/24 162/9/24
f 157/1/25 164/2/25 170/3/25
f 174/28/26 164/2/26 166/36/26
f 176/11/26 170/3/26 174/28/26
f 159/38/25 170/3/25 172/37/25
f 158/41/6 152/158/6 156/159/6
f 173/28/8 167/160/8 161/161/8
f 156/162/10 161/161/10 167/160/10
f 163/163/27 158/1/27 169/3/27
f 163/163/28 173/28/28 165/164/28
f 169/3/28 175/165/28 173/28/28
f 169/3/27 160/166/27 171/167/27
f 131/116/8 127/244/8 129/245/8
f 129/245/8 135/246/8 131/116/8
f 135/246/8 137/114/8 131/116/8
f 134/117/2 133/115/2 137/114/2
f 146/119/2 145/247/2 149/120/2
f 148/123/6 142/128/6 140/248/6
f 144/122/6 146/119/6 150/121/6
f 148/123/6 140/248/6 144/122/6
f 129/124/4 127/249/4 128/125/4
f 139/127/4 140/248/4 142/128/4
f 136/132/6 130/250/6 132/251/6
f 130/250/6 128/252/6 132/251/6
f 132/251/6 134/130/6 136/132/6
f 143/135/8 139/253/8 141/254/8
f 147/133/8 149/255/8 145/134/8
f 143/135/8 141/254/8 147/133/8
f 135/136/5 136/145/5 138/137/5
f 148/139/3 150/256/3 149/140/3
f 142/142/3 148/139/3 147/141/3
f 129/144/5 130/257/5 136/145/5
f 128/146/7 127/258/7 131/136/7
f 140/147/1 139/259/1 143/141/1
f 144/139/1 143/141/1 145/148/1
f 132/145/7 131/136/7 133/150/7
f 159/20/8 155/91/8 157/41/8
f 155/91/8 151/152/8 157/41/8
f 167/260/2 175/155/2 168/25/2
f 172/10/2 176/11/2 171/261/2
f 172/10/2 171/261/2 159/20/2
f 171/261/2 160/154/2 159/20/2
f 167/260/2 168/25/2 155/91/2
f 156/262/2 167/260/2 155/91/2
f 160/154/2 156/262/2 155/91/2
f 175/155/2 171/261/2 176/11/2
f 166/36/6 162/9/6 174/28/6
f 162/9/6 168/25/6 174/28/6
f 163/263/4 165/157/4 164/5/4
f 162/9/4 166/36/4 161/264/4
f 162/9/4 161/264/4 152/265/4
f 163/263/4 164/5/4 153/6/4
f 154/156/4 163/263/4 153/6/4
f 151/98/4 162/9/4 152/265/4
f 152/265/4 154/156/4 151/98/4
f 165/157/4 161/264/4 166/36/4
f 151/21/24 155/95/24 168/25/24
f 157/1/25 153/168/25 164/2/25
f 174/28/26 170/3/26 164/2/26
f 176/11/26 172/37/26 170/3/26
f 159/38/25 157/1/25 170/3/25
f 156/159/6 160/266/6 158/41/6
f 158/41/6 154/267/6 152/158/6
f 161/161/8 165/164/8 173/28/8
f 173/28/8 175/165/8 167/160/8
f 156/162/10 152/268/10 161/161/10
f 163/163/27 154/269/27 158/1/27
f 163/163/28 169/3/28 173/28/28
f 169/3/28 171/167/28 175/165/28
f 169/3/27 158/1/27 160/166/27
usemtl Material
f 96/1/3 106/2/3 120/3/3
f 105/88/4 106/5/4 88/6/4
f 99/7/1 113/8/1 101/9/1
f 121/89/2 122/10/2 126/11/2
f 115/25/2 116/90/2 118/27/2
f 91/91/2 92/92/2 111/93/2
f 98/20/2 121/89/2 97/94/2
f 99/7/7 89/23/7 109/22/7
f 109/22/7 91/95/7 111/24/7
f 109/22/1 115/25/1 113/8/1
f 104/26/6 118/27/6 124/28/6
f 84/96/4 85/97/4 83/98/4
f 102/99/4 99/100/4 101/9/4
f 107/101/4 104/26/4 108/36/4
f 124/28/5 106/2/5 108/36/5
f 126/11/5 120/3/5 124/28/5
f 98/38/3 120/3/3 122/37/3
f 93/39/8 85/40/8 96/41/8
f 105/102/20 95/1/20 119/3/20
f 114/8/21 100/103/21 102/104/21
f 90/23/22 100/103/22 110/22/22
f 92/105/22 110/22/22 112/106/22
f 116/107/21 110/22/21 114/8/21
f 114/8/8 103/108/8 123/28/8
f 105/102/23 123/28/23 107/109/23
f 119/3/23 125/110/23 123/28/23
f 119/3/20 97/111/20 121/112/20
f 90/49/6 94/113/6 95/41/6
f 96/1/3 88/168/3 106/2/3
f 88/6/4 85/97/4 87/228/4
f 85/97/4 86/229/4 87/228/4
f 87/228/4 105/88/4 88/6/4
f 99/7/1 109/22/1 113/8/1
f 126/11/2 118/27/2 125/230/2
f 118/27/2 117/231/2 125/230/2
f 125/230/2 121/89/2 126/11/2
f 115/25/2 111/93/2 116/90/2
f 111/93/2 112/232/2 116/90/2
f 116/90/2 117/231/2 118/27/2
f 91/91/2 93/39/2 92/92/2
f 93/39/2 94/233/2 92/92/2
f 92/92/2 112/232/2 111/93/2
f 97/94/2 94/233/2 93/39/2
f 98/20/2 122/10/2 121/89/2
f 97/94/2 93/39/2 98/20/2
f 99/7/7 83/21/7 89/23/7
f 109/22/7 89/23/7 91/95/7
f 109/22/1 111/24/1 115/25/1
f 104/26/6 101/9/6 113/8/6
f 113/8/6 115/25/6 118/27/6
f 118/27/6 126/11/6 124/28/6
f 124/28/6 108/36/6 104/26/6
f 104/26/6 113/8/6 118/27/6
f 84/96/4 86/229/4 85/97/4
f 83/98/4 99/100/4 84/96/4
f 99/100/4 100/234/4 84/96/4
f 102/99/4 100/234/4 99/100/4
f 101/9/4 104/26/4 102/99/4
f 104/26/4 103/235/4 102/99/4
f 108/36/4 106/5/4 105/88/4
f 107/101/4 103/235/4 104/26/4
f 108/36/4 105/88/4 107/101/4
f 124/28/5 120/3/5 106/2/5
f 126/11/5 122/37/5 120/3/5
f 98/38/3 96/1/3 120/3/3
f 93/39/8 91/91/8 89/49/8
f 89/49/8 83/152/8 85/40/8
f 85/40/8 88/153/8 96/41/8
f 96/41/8 98/20/8 93/39/8
f 93/39/8 89/49/8 85/40/8
f 105/102/20 87/236/20 95/1/20
f 114/8/21 110/22/21 100/103/21
f 90/23/22 84/237/22 100/103/22
f 92/105/22 90/23/22 110/22/22
f 116/107/21 112/106/21 110/22/21
f 117/238/8 116/107/8 114/8/8
f 114/8/8 102/104/8 103/108/8
f 103/108/8 107/109/8 123/28/8
f 123/28/8 125/110/8 117/238/8
f 117/238/8 114/8/8 123/28/8
f 105/102/23 119/3/23 123/28/23
f 119/3/23 121/112/23 125/110/23
f 119/3/20 95/1/20 97/111/20
f 86/239/6 84/240/6 90/49/6
f 90/49/6 92/241/6 94/113/6
f 94/113/6 97/242/6 95/41/6
f 95/41/6 87/243/6 86/239/6
f 86/239/6 90/49/6 95/41/6
